# Blender 3.2.0
# www.blender.org
mtllib grassblade.mtl
o Plane
v -0.000000 8.145977 0.026401
v 0.000000 -0.001671 0.500000
v -0.000000 8.145977 -0.026401
v 0.000000 -0.001671 -0.500000
v -0.000000 4.008186 0.344081
v -0.000000 4.008186 -0.344081
v -0.000000 5.997763 -0.224985
v -0.000000 5.997763 0.224985
v 0.000000 1.965730 0.433847
v 0.000000 1.965731 -0.419158
vn 1.0000 -0.0000 -0.0000
vt 0.000000 0.000000
vt 1.000000 0.000000
vt 0.000000 1.000000
vt 1.000000 1.000000
vt 0.500000 0.000000
vt 0.500000 1.000000
vt 0.250000 1.000000
vt 0.250000 0.000000
vt 0.750000 0.000000
vt 0.750000 1.000000
s 0
f 9/9/1 2/2/1 4/4/1 10/10/1
f 8/8/1 5/5/1 6/6/1 7/7/1
f 1/1/1 8/8/1 7/7/1 3/3/1
f 5/5/1 9/9/1 10/10/1 6/6/1
